<?xml version="1.0" encoding="UTF-8"?>
<svg xmlns="http://www.w3.org/2000/svg" viewBox="0 0 1000 1000" preserveAspectRatio="none">
  <defs>
    <linearGradient id="g" x1="0" y1="0" x2="1" y2="1">
      <stop offset="0" stop-color="#7cffd7" stop-opacity="0.14"/>
      <stop offset="1" stop-color="#78b4ff" stop-opacity="0.10"/>
    </linearGradient>
    <style>
      .grid{stroke:url(#g);stroke-width:1;opacity:.45}
      .thin{stroke:#7cffd7;stroke-width:1;opacity:.18}
      .node{fill:#7cffd7;opacity:.22}
      .arc{fill:none;stroke:#78b4ff;stroke-width:1.2;opacity:.20}
      .tick{stroke:#7cffd7;stroke-width:1;opacity:.22}
    </style>
  </defs>
  <g>
    <line class="grid" x1="0" y1="0" x2="0" y2="1000"/>
<line class="grid" x1="80" y1="0" x2="80" y2="1000"/>
<line class="grid" x1="160" y1="0" x2="160" y2="1000"/>
<line class="grid" x1="240" y1="0" x2="240" y2="1000"/>
<line class="grid" x1="320" y1="0" x2="320" y2="1000"/>
<line class="grid" x1="400" y1="0" x2="400" y2="1000"/>
<line class="grid" x1="480" y1="0" x2="480" y2="1000"/>
<line class="grid" x1="560" y1="0" x2="560" y2="1000"/>
<line class="grid" x1="640" y1="0" x2="640" y2="1000"/>
<line class="grid" x1="720" y1="0" x2="720" y2="1000"/>
<line class="grid" x1="800" y1="0" x2="800" y2="1000"/>
<line class="grid" x1="880" y1="0" x2="880" y2="1000"/>
<line class="grid" x1="960" y1="0" x2="960" y2="1000"/>
    <line class="grid" x1="0" y1="0" x2="1000" y2="0"/>
<line class="grid" x1="0" y1="80" x2="1000" y2="80"/>
<line class="grid" x1="0" y1="160" x2="1000" y2="160"/>
<line class="grid" x1="0" y1="240" x2="1000" y2="240"/>
<line class="grid" x1="0" y1="320" x2="1000" y2="320"/>
<line class="grid" x1="0" y1="400" x2="1000" y2="400"/>
<line class="grid" x1="0" y1="480" x2="1000" y2="480"/>
<line class="grid" x1="0" y1="560" x2="1000" y2="560"/>
<line class="grid" x1="0" y1="640" x2="1000" y2="640"/>
<line class="grid" x1="0" y1="720" x2="1000" y2="720"/>
<line class="grid" x1="0" y1="800" x2="1000" y2="800"/>
<line class="grid" x1="0" y1="880" x2="1000" y2="880"/>
<line class="grid" x1="0" y1="960" x2="1000" y2="960"/>
  </g>
  <g>
    <circle class="thin" cx="520" cy="520" r="220"/>
    <circle class="thin" cx="520" cy="520" r="360" style="opacity:.12"/>
    <path class="arc" d="M140,520 A380,380 0 0 1 900,520"/>
    <path class="arc" d="M520,140 A380,380 0 0 1 520,900"/>
    <path class="arc" d="M260,260 A520,520 0 0 1 780,780" style="opacity:.14"/>
    <path class="arc" d="M780,260 A520,520 0 0 1 260,780" style="opacity:.14"/>
  </g>
  <g>
    <circle class="node" cx="520" cy="520" r="3.2"/>
    <circle class="node" cx="520" cy="300" r="2.6"/>
    <circle class="node" cx="740" cy="520" r="2.6"/>
    <circle class="node" cx="520" cy="740" r="2.6"/>
    <circle class="node" cx="300" cy="520" r="2.6"/>
    <circle class="node" cx="640" cy="360" r="2.2"/>
    <circle class="node" cx="360" cy="640" r="2.2"/>
    <circle class="node" cx="360" cy="360" r="2.2"/>
    <circle class="node" cx="640" cy="640" r="2.2"/>
  </g>
  <g>
    <line class="tick" x1="520" y1="80" x2="520" y2="110"/>
    <line class="tick" x1="520" y1="890" x2="520" y2="920"/>
    <line class="tick" x1="80" y1="520" x2="110" y2="520"/>
    <line class="tick" x1="890" y1="520" x2="920" y2="520"/>
    <line class="tick" x1="160" y1="160" x2="182" y2="182" style="opacity:.18"/>
    <line class="tick" x1="840" y1="160" x2="818" y2="182" style="opacity:.18"/>
    <line class="tick" x1="160" y1="840" x2="182" y2="818" style="opacity:.18"/>
    <line class="tick" x1="840" y1="840" x2="818" y2="818" style="opacity:.18"/>
  </g>
</svg>
